# xmcd CD database file
#
# Track frame offsets:
#	150
#	13619
#	25314
#	37640
#	50114
#	61326
#	72346
#	83054
#	96025
#	108211
#	121140
#	133948
#	145822
#	158325
#	172133
#	184856
#	198068
#	212624
#	224034
#	234915
#	246978
#	257359
#
# Disc length: 3613 seconds
#
# Revision: 3
# Processed by: cddbd v1.5.2PL0 Copyright (c) Steve Scherf et al.
# Submitted via: CDex 1.60beta1-cs1
#
DISCID=2d0e1b16
DTITLE=Stan Getz - S' Wonderful
DYEAR=2006
DGENRE=Jazz
TTITLE0=You go to my head
TTITLE1=Hershey Bar
TTITLE2=On the alamo
TTITLE3=Yesterdays
TTITLE4=Strike up the band
TTITLE5=Out of nowhere
TTITLE6=Imagination
TTITLE7=S' Wonderful
TTITLE8=The best thing for you
TTITLE9=It might as well be spring
TTITLE10=Penny
TTITLE11=Potter's Luck
TTITLE12=Melody Express
TTITLE13=Wildwood
TTITLE14=The song is you
TTITLE15=Yvette
TTITLE16=Moonlight is Vermont
TTITLE17=Jaguar
TTITLE18=Where or when
TTITLE19=Tabu
TTITLE20=Sometimes I'm happy
TTITLE21=Stars fell on Alabama
EXTD=YEAR: 2006
EXTT0=
EXTT1=
EXTT2=
EXTT3=
EXTT4=
EXTT5=
EXTT6=
EXTT7=
EXTT8=
EXTT9=
EXTT10=
EXTT11=
EXTT12=
EXTT13=
EXTT14=
EXTT15=
EXTT16=
EXTT17=
EXTT18=
EXTT19=
EXTT20=
EXTT21=
PLAYORDER=
